<?xml version="1.0" encoding="utf-8"?>
<!-- Generator: Adobe Illustrator 23.0.1, SVG Export Plug-In . SVG Version: 6.00 Build 0)  -->
<svg version="1.1" id="Layer_1" xmlns="http://www.w3.org/2000/svg" xmlns:xlink="http://www.w3.org/1999/xlink" x="0px" y="0px"
	 viewBox="0 0 175.9 32.8" style="enable-background:new 0 0 175.9 32.8;" xml:space="preserve">
<style type="text/css">
	.st0{fill:#F3C300;}
	.st1{fill:#FFFFFF;}
</style>
<title>Asset 1</title>
<g>
	<g id="Layer_1-2">
		<rect x="54.2" y="0.3" class="st0" width="0.5" height="32.3"/>
		<path class="st0" d="M22.6,26.9l-9.2-12.6v9.2H17v9.1H0v-9.1h3.5V9.4H0V0.3h13.4L22.6,13l9.2-12.7h13.4v9.1h-3.4v14.1h3.5v9.1h-17
			v-9.1h3.7v-9.2L22.6,26.9z"/>
		<path class="st1" d="M63.9,0.3h7.8v2.5h-4.9v11.8h4.7V17h-4.7v13h4.9v2.5h-7.8V0.3z"/>
		<path class="st1" d="M75.6,0.3h5.1c4,0,5,2.1,5,5.2v21.8c0,3.2-1,5.2-5,5.2h-5.1V0.3z M80.1,30.1c2,0,2.6-0.6,2.6-2.5V5.3
			c0-1.9-0.6-2.5-2.6-2.5h-1.6v27.3L80.1,30.1z"/>
		<path class="st1" d="M97.8,0.3h3v28c0,3.6-2.7,4.6-5.2,4.6s-5.1-1-5.1-4.6v-28h2.9v27c0,2.3,0.8,3,2.2,3s2.2-0.7,2.2-3L97.8,0.3z"
			/>
		<path class="st1" d="M111.6,4.6c0-1.4-0.5-2-1.7-2s-1.7,0.7-1.7,2v23.7c0,1.4,0.5,2,1.7,2s1.7-0.7,1.7-2v-4.5h3v4.6
			c0,2.7-1.5,4.5-4.6,4.5s-4.6-1.8-4.6-4.5V4.5c0-2.7,1.5-4.5,4.6-4.5s4.6,1.8,4.6,4.5v4.3h-3L111.6,4.6z"/>
		<path class="st1" d="M125.5,23.6h-5.2l-1.2,9h-3l4.8-32.4h4l4.8,32.3h-3L125.5,23.6z M123,2.5L123,2.5l-2.3,18.6h4.6L123,2.5z"/>
		<path class="st1" d="M133.4,2.8h-3.3V0.3h9.6v2.5h-3.3v29.8h-2.9L133.4,2.8z"/>
		<path class="st1" d="M143,0.3h3v32.3h-3V0.3z"/>
		<path class="st1" d="M150.5,5.5c0-3.2,1.2-5.5,5.2-5.5s5.2,2.3,5.2,5.5v21.9c0,3.2-1.2,5.5-5.2,5.5s-5.2-2.3-5.2-5.5V5.5z
			 M153.5,27.3c0,1.8,0.4,3,2.2,3s2.2-1.2,2.2-3V5.6c0-1.8-0.4-3-2.2-3s-2.2,1.2-2.2,3V27.3z"/>
		<path class="st1" d="M173.3,0.3h2.6v32.3h-4.2L168,3.8h-0.1v28.7h-2.6V0.3h4.3l3.6,27.6h0.1L173.3,0.3z"/>
	</g>
</g>
</svg>
