<svg id="svg" version="1.1" width="400" height="73.6318407960199" viewBox="0 0 400 73.6318407960199" xmlns="http://www.w3.org/2000/svg" xmlns:xlink="http://www.w3.org/1999/xlink" ><g id="svgg"><path id="path0" d="M144.333 36.750 L 144.333 73.500 155.250 73.500 L 166.167 73.500 166.167 70.023 C 166.167 65.320,166.130 65.092,165.336 64.854 C 164.944 64.737,163.116 64.667,160.439 64.667 L 156.167 64.667 156.167 52.667 L 156.167 40.667 160.808 40.667 C 165.313 40.667,165.458 40.656,165.766 40.316 C 166.091 39.957,166.368 32.326,166.095 31.238 L 165.994 30.833 161.080 30.833 L 156.167 30.833 156.167 19.917 L 156.167 9.000 160.905 9.000 C 164.990 9.000,165.679 8.964,165.905 8.738 C 166.129 8.514,166.167 7.869,166.167 4.238 L 166.167 0.000 155.250 0.000 L 144.333 0.000 144.333 36.750 M170.556 1.292 C 170.374 2.979,170.374 70.521,170.556 72.208 L 170.695 73.500 182.348 73.500 L 194.000 73.500 194.000 73.013 C 194.000 72.554,194.051 72.517,194.866 72.388 L 195.732 72.250 195.908 71.333 L 196.083 70.417 196.806 70.320 C 198.116 70.145,198.027 72.785,197.968 35.610 L 197.917 3.804 197.523 3.485 C 197.307 3.310,196.886 3.167,196.588 3.167 C 196.062 3.167,196.044 3.143,195.947 2.329 C 195.815 1.209,195.774 1.167,194.823 1.167 L 194.000 1.167 194.000 0.583 L 194.000 0.000 182.348 0.000 L 170.695 0.000 170.556 1.292 M204.167 34.073 C 204.167 61.152,204.209 68.174,204.375 68.278 C 204.490 68.349,204.921 68.447,205.333 68.496 L 206.083 68.583 206.132 70.161 C 206.184 71.852,206.390 72.331,207.067 72.336 C 207.870 72.341,208.167 72.525,208.167 73.019 L 208.167 73.500 218.667 73.500 L 229.167 73.500 229.167 73.000 C 229.167 72.684,229.252 72.500,229.399 72.500 C 229.705 72.500,229.833 72.132,229.833 71.258 L 229.833 70.542 230.670 70.462 C 231.131 70.418,231.562 70.327,231.629 70.260 C 231.695 70.194,231.769 54.358,231.793 35.069 L 231.836 -0.000 226.025 0.000 L 220.215 0.000 220.109 1.125 C 220.050 1.744,220.002 16.369,220.001 33.625 C 220.000 61.085,219.970 65.000,219.756 65.000 C 219.438 65.000,218.333 66.105,218.333 66.422 C 218.333 66.557,218.221 66.667,218.083 66.667 C 217.895 66.667,217.833 66.465,217.833 65.850 C 217.833 64.977,217.455 64.667,216.392 64.667 L 216.000 64.667 216.000 32.333 L 216.000 0.000 210.083 0.000 L 204.167 0.000 204.167 34.073 M240.333 0.583 C 240.333 0.904,240.258 1.167,240.167 1.167 C 240.075 1.167,240.000 1.599,240.000 2.130 L 240.000 3.094 239.292 3.338 C 237.877 3.828,238.000 0.646,238.001 36.583 C 238.002 57.888,238.059 68.621,238.173 69.034 C 238.369 69.738,239.025 70.333,239.606 70.333 C 239.977 70.333,240.000 70.393,240.000 71.339 C 240.000 72.078,240.066 72.369,240.250 72.440 C 240.393 72.494,240.500 72.743,240.500 73.018 L 240.500 73.500 250.083 73.500 L 259.667 73.500 259.667 73.008 C 259.667 72.567,259.733 72.505,260.292 72.415 C 261.254 72.262,261.406 72.114,261.554 71.190 C 261.675 70.439,261.741 70.333,262.086 70.333 C 262.627 70.333,262.726 70.569,262.427 71.147 C 262.287 71.417,262.124 72.057,262.064 72.569 L 261.954 73.500 267.810 73.500 L 273.667 73.500 273.667 72.667 C 273.667 72.114,273.737 71.831,273.875 71.828 C 274.269 71.817,274.761 71.249,275.168 70.333 L 275.576 69.417 275.636 62.042 L 275.696 54.667 279.681 54.667 L 283.667 54.667 283.667 57.173 C 283.667 61.971,284.053 63.917,285.105 64.416 L 285.667 64.682 285.667 69.091 L 285.667 73.500 291.600 73.500 L 297.532 73.500 297.463 69.125 C 297.417 66.146,297.328 64.590,297.186 64.250 C 296.890 63.539,296.337 63.000,295.905 63.000 L 295.534 63.000 295.475 56.184 C 295.422 49.976,295.391 49.339,295.125 49.046 C 294.965 48.869,294.833 48.639,294.833 48.536 C 294.833 48.274,294.032 47.500,293.760 47.500 C 293.582 47.500,293.521 46.838,293.466 44.292 C 293.384 40.533,293.202 39.863,292.129 39.369 L 291.509 39.083 291.504 32.128 C 291.499 23.920,291.440 23.582,289.958 23.245 L 289.500 23.140 289.500 16.720 C 289.500 9.997,289.432 9.322,288.724 9.050 C 288.601 9.003,288.500 8.879,288.500 8.774 C 288.499 8.669,288.274 8.433,288.000 8.250 L 287.501 7.917 287.500 3.958 L 287.500 0.000 279.851 0.000 L 272.202 0.000 272.080 0.708 C 272.013 1.098,271.928 4.166,271.892 7.527 L 271.825 13.637 271.350 13.802 C 271.001 13.924,270.737 14.245,270.354 15.011 L 269.833 16.053 269.833 22.861 L 269.833 29.668 269.003 30.481 C 267.869 31.592,267.833 31.741,267.833 35.424 L 267.833 38.660 267.188 38.989 C 265.980 39.605,265.954 39.773,265.845 47.728 L 265.750 54.707 265.167 54.895 C 263.977 55.279,263.937 55.527,263.861 62.966 C 263.824 66.569,263.758 69.480,263.714 69.436 C 263.670 69.392,263.622 65.346,263.608 60.446 C 263.584 51.937,263.569 51.519,263.266 51.184 C 262.868 50.744,253.024 50.636,252.458 51.065 C 251.947 51.453,251.833 52.903,251.833 59.023 L 251.833 65.000 250.833 65.000 L 249.833 65.000 249.833 37.000 L 249.833 9.000 250.833 9.000 L 251.833 9.000 251.833 14.510 C 251.833 22.943,251.695 22.750,257.750 22.750 C 264.047 22.750,263.714 23.341,263.638 12.308 C 263.577 3.499,263.629 3.871,262.396 3.400 C 261.759 3.156,261.700 3.081,261.604 2.377 C 261.465 1.366,261.267 1.167,260.396 1.167 C 259.674 1.167,259.667 1.161,259.667 0.583 L 259.667 0.000 250.000 0.000 L 240.333 0.000 240.333 0.583 M293.697 3.792 C 293.797 9.022,293.775 9.000,298.890 9.000 L 301.667 9.000 301.667 41.250 L 301.667 73.500 307.083 73.500 L 312.500 73.500 312.500 73.030 C 312.500 72.771,312.613 72.227,312.752 71.821 C 312.973 71.170,312.998 67.369,312.960 40.051 L 312.917 9.019 316.070 8.968 C 318.407 8.930,319.241 8.863,319.292 8.708 C 319.330 8.594,319.462 8.500,319.584 8.500 C 319.892 8.500,320.833 7.686,320.833 7.421 C 320.833 7.302,320.945 6.990,321.082 6.727 C 321.277 6.354,321.332 5.571,321.332 3.125 L 321.333 0.000 307.479 0.000 L 293.624 0.000 293.697 3.792 M323.500 36.750 L 323.500 73.500 329.308 73.500 L 335.115 73.500 335.224 71.474 C 335.367 68.830,335.367 4.670,335.224 2.026 L 335.115 0.000 329.308 0.000 L 323.500 0.000 323.500 36.750 M343.497 0.542 C 343.494 1.212,343.363 1.420,342.843 1.582 C 342.317 1.747,341.846 2.314,341.839 2.792 C 341.836 2.998,341.758 3.167,341.667 3.167 C 341.564 3.167,341.500 4.000,341.500 5.333 C 341.500 7.467,341.494 7.500,341.125 7.506 C 340.556 7.514,340.087 8.002,339.779 8.908 C 339.523 9.660,339.501 11.931,339.509 36.988 C 339.519 67.797,339.416 65.440,340.787 66.077 L 341.490 66.404 341.537 68.408 C 341.577 70.126,341.623 70.420,341.862 70.466 C 342.564 70.601,343.299 71.587,343.421 72.558 L 343.538 73.500 353.436 73.500 L 363.333 73.500 363.333 73.000 C 363.333 72.521,363.363 72.500,364.063 72.500 C 364.941 72.500,365.127 72.308,365.197 71.330 L 365.250 70.583 366.035 70.493 C 367.112 70.369,367.077 70.467,367.136 67.394 C 367.181 65.058,367.229 64.632,367.457 64.545 C 367.899 64.375,368.257 63.934,368.553 63.193 C 368.876 62.387,368.996 11.616,368.677 10.777 C 368.495 10.298,367.682 9.500,367.377 9.500 C 367.216 9.500,367.166 8.841,367.164 6.708 C 367.162 3.689,367.095 3.167,366.711 3.167 C 366.392 3.167,365.216 1.963,365.138 1.557 C 365.106 1.388,364.912 1.226,364.707 1.197 C 364.403 1.153,364.333 1.037,364.333 0.572 L 364.333 0.000 353.917 0.000 L 343.500 0.000 343.497 0.542 M373.333 36.750 L 373.333 73.500 378.250 73.500 L 383.167 73.500 383.189 59.708 C 383.205 50.444,383.261 46.430,383.360 47.480 C 383.525 49.211,383.817 49.817,384.669 50.194 L 385.167 50.415 385.167 53.819 C 385.167 58.750,385.455 60.020,386.625 60.244 L 387.167 60.348 387.167 66.924 L 387.167 73.500 393.583 73.500 L 400.000 73.500 400.000 36.750 L 400.000 0.000 395.583 0.000 L 391.167 0.000 391.128 17.708 C 391.100 30.747,391.067 33.319,391.003 27.461 L 390.917 19.506 389.958 18.628 L 389.000 17.750 389.000 10.568 C 389.000 2.140,388.851 1.167,387.558 1.167 C 387.222 1.167,387.167 1.084,387.167 0.583 L 387.167 0.000 380.250 0.000 L 373.333 0.000 373.333 36.750 M186.167 36.833 L 186.167 64.667 184.167 64.667 L 182.167 64.667 182.167 36.833 L 182.167 9.000 184.167 9.000 L 186.167 9.000 186.167 36.833 M355.440 9.692 C 355.582 10.579,356.004 11.000,356.750 11.000 L 357.333 11.000 357.333 36.237 L 357.333 61.474 356.640 62.154 C 356.259 62.528,355.893 62.833,355.827 62.833 C 355.657 62.833,355.333 64.198,355.333 64.917 C 355.333 65.475,355.276 65.544,354.542 65.866 C 354.106 66.057,353.725 66.278,353.694 66.357 C 353.510 66.833,353.167 66.435,353.167 65.746 C 353.167 64.901,352.856 64.667,351.739 64.667 L 351.167 64.667 351.167 36.833 L 351.167 9.000 353.248 9.000 L 355.329 9.000 355.440 9.692 M280.161 27.225 C 280.167 27.579,281.087 28.500,281.434 28.500 C 281.630 28.500,281.667 29.682,281.667 35.893 C 281.667 39.960,281.714 43.635,281.773 44.060 L 281.879 44.833 279.773 44.833 L 277.667 44.833 277.667 40.505 L 277.667 36.177 278.079 35.961 C 278.306 35.842,278.736 35.371,279.034 34.914 L 279.576 34.083 279.637 30.198 C 279.690 26.859,279.730 26.355,279.927 26.615 C 280.053 26.781,280.158 27.055,280.161 27.225 " stroke="none" fill="#fcfcfc" fill-rule="evenodd"></path><path id="path1" d="M0.000 11.417 L 0.000 22.833 3.583 22.833 L 7.167 22.833 7.167 36.833 L 7.167 50.833 3.583 50.833 L 0.000 50.833 0.000 62.167 L 0.000 73.500 21.417 73.500 L 42.833 73.500 42.833 62.430 C 42.833 56.342,42.788 51.242,42.732 51.097 C 42.644 50.867,42.134 50.833,38.732 50.833 L 34.833 50.833 34.865 44.708 C 34.883 41.340,34.924 39.052,34.957 39.625 C 35.008 40.527,35.060 40.667,35.341 40.667 C 35.913 40.667,37.000 41.915,37.000 42.572 C 37.000 43.768,37.543 44.500,38.429 44.500 L 39.000 44.500 39.000 45.492 C 39.000 46.126,39.078 46.531,39.217 46.617 C 39.336 46.690,39.603 46.994,39.811 47.291 C 40.019 47.589,40.364 47.877,40.579 47.930 C 40.793 47.984,41.006 48.172,41.052 48.347 C 41.120 48.608,41.288 48.667,41.960 48.667 L 42.784 48.667 42.882 50.053 C 43.025 52.082,43.289 52.491,44.458 52.498 C 44.796 52.500,44.833 52.581,44.833 53.321 C 44.833 54.116,45.118 54.667,45.529 54.667 C 45.752 54.667,46.833 55.748,46.833 55.971 C 46.833 56.360,47.384 56.667,48.080 56.667 L 48.802 56.667 48.859 58.328 C 48.926 60.256,49.065 60.492,50.213 60.621 C 50.940 60.703,50.964 60.724,51.050 61.366 C 51.176 62.304,51.510 62.488,53.095 62.495 C 55.429 62.504,56.644 61.758,56.663 60.306 C 56.665 60.153,56.888 59.930,57.158 59.810 C 57.429 59.691,57.744 59.416,57.860 59.200 C 57.976 58.984,58.204 58.736,58.368 58.648 C 58.599 58.524,58.667 58.282,58.667 57.577 L 58.667 56.667 59.301 56.667 C 60.226 56.667,60.529 56.370,60.625 55.373 C 60.705 54.538,60.718 54.521,61.339 54.416 C 62.294 54.254,62.467 53.951,62.598 52.205 L 62.714 50.667 63.429 50.667 C 64.381 50.667,64.667 50.356,64.667 49.321 L 64.667 48.500 65.308 48.500 C 66.105 48.500,66.500 48.101,66.500 47.296 C 66.500 46.754,66.569 46.668,67.292 46.309 C 67.873 46.021,68.122 45.784,68.228 45.417 C 68.307 45.142,68.439 44.786,68.520 44.627 C 68.600 44.468,68.667 43.962,68.667 43.502 L 68.667 42.667 69.494 42.667 C 70.483 42.667,70.667 42.434,70.667 41.185 C 70.667 40.401,70.701 40.332,71.222 40.086 C 71.546 39.931,71.891 39.582,72.052 39.244 C 72.763 37.755,72.833 38.253,72.833 44.750 L 72.833 50.833 68.753 50.833 C 64.359 50.833,63.661 50.943,63.174 51.711 C 62.893 52.155,62.707 65.606,62.914 70.567 L 63.036 73.500 84.769 73.500 L 106.502 73.500 106.459 62.208 L 106.417 50.917 103.083 50.872 L 99.750 50.827 99.750 36.830 L 99.750 22.833 102.925 22.833 C 105.172 22.833,106.158 22.775,106.300 22.633 C 106.452 22.482,106.500 19.719,106.500 11.217 L 106.500 0.000 88.667 0.000 L 70.833 0.000 70.833 0.797 C 70.833 1.505,70.777 1.628,70.339 1.887 C 70.068 2.047,69.714 2.401,69.553 2.673 C 69.393 2.944,69.165 3.167,69.047 3.167 C 68.897 3.167,68.833 3.463,68.833 4.167 L 68.833 5.167 68.033 5.167 C 66.906 5.167,66.833 5.294,66.833 7.283 L 66.833 9.000 65.911 9.000 C 65.246 9.000,64.963 9.069,64.894 9.250 C 64.841 9.388,64.696 9.500,64.571 9.500 C 64.298 9.500,63.333 10.414,63.333 10.673 C 63.333 10.774,63.221 10.970,63.083 11.107 C 62.931 11.260,62.833 11.668,62.833 12.157 L 62.833 12.958 61.996 13.038 C 60.925 13.141,60.933 13.130,60.859 14.597 C 60.805 15.666,60.742 15.881,60.398 16.151 C 60.179 16.324,60.000 16.549,60.000 16.653 C 60.000 16.757,59.769 16.888,59.487 16.944 C 59.157 17.010,58.921 17.187,58.824 17.440 C 58.742 17.656,58.564 17.833,58.429 17.833 C 58.293 17.833,58.047 18.028,57.883 18.265 C 57.718 18.503,57.415 18.854,57.208 19.045 C 56.920 19.313,56.833 19.578,56.833 20.191 L 56.833 20.989 56.007 21.098 L 55.181 21.208 54.990 22.145 C 54.884 22.661,54.771 23.177,54.737 23.292 C 54.703 23.410,54.406 23.501,54.047 23.502 C 53.700 23.504,53.258 23.547,53.065 23.599 C 52.803 23.669,52.689 23.604,52.622 23.347 C 52.544 23.048,52.403 23.000,51.604 23.000 L 50.678 23.000 50.630 21.125 L 50.583 19.250 49.708 19.095 L 48.833 18.939 48.833 18.231 C 48.833 17.558,48.523 17.000,48.149 17.000 C 47.859 17.000,46.833 15.851,46.833 15.526 C 46.833 15.351,46.721 15.114,46.583 15.000 C 46.446 14.886,46.333 14.635,46.333 14.443 C 46.333 14.043,45.586 13.333,45.164 13.333 C 44.947 13.333,44.856 13.135,44.781 12.495 C 44.661 11.487,44.416 11.211,43.517 11.067 C 42.840 10.958,42.833 10.951,42.833 10.241 C 42.833 9.311,42.517 9.000,41.571 9.000 L 40.833 9.000 40.833 8.093 C 40.833 7.594,40.758 7.140,40.667 7.083 C 40.575 7.027,40.498 6.854,40.494 6.698 C 40.486 6.282,39.974 5.741,39.411 5.555 C 39.031 5.429,38.907 5.278,38.874 4.904 C 38.745 3.443,38.552 3.167,37.660 3.167 L 36.833 3.167 36.833 2.260 C 36.833 1.761,36.758 1.307,36.667 1.250 C 36.575 1.193,36.500 0.889,36.500 0.573 L 36.500 0.000 18.250 0.000 L 0.000 0.000 0.000 11.417 M122.608 1.275 C 122.549 1.976,122.500 17.940,122.500 36.750 C 122.500 55.560,122.549 71.524,122.608 72.225 L 122.716 73.500 126.084 73.500 L 129.452 73.500 129.558 72.375 C 129.698 70.895,129.699 2.928,129.559 1.275 L 129.451 0.000 126.083 0.000 L 122.716 0.000 122.608 1.275 " stroke="none" fill="#fccb04" fill-rule="evenodd"></path><path id="path2" d="" stroke="none" fill="#fce0100" fill-rule="evenodd"></path><path id="path3" d="" stroke="none" fill="#fce0100" fill-rule="evenodd"></path><path id="path4" d="" stroke="none" fill="#fce0100" fill-rule="evenodd"></path></g></svg>